<mxfile host="drawio-plugin" modified="2023-06-16T07:34:37.880Z" agent="5.0 (Windows NT 6.2; Win64; x64) AppleWebKit/537.36 (KHTML, like Gecko) Chrome/104.0.5112.102 Safari/537.36" etag="-HEP0GFvVfSQHJjbsSWk" version="20.5.3" type="embed" pages="2"><diagram id="3HhDGUCTuPXhGJLU1Bjr" name="Component Overview"><mxGraphModel dx="898" dy="728" grid="1" gridSize="10" guides="1" tooltips="1" connect="1" arrows="1" fold="1" page="1" pageScale="1" pageWidth="1600" pageHeight="1200" math="0" shadow="0"><root><mxCell id="0"/><mxCell id="1" parent="0"/><mxCell id="PViRO45lnsMERoX-mHAi-35" style="edgeStyle=none;shape=connector;rounded=0;orthogonalLoop=1;jettySize=auto;html=1;labelBackgroundColor=default;fontFamily=Helvetica;fontSize=11;fontColor=default;endArrow=openThin;endFill=0;startSize=12;endSize=12;strokeColor=#BD7000;fillColor=#f0a30a;" parent="1" source="PViRO45lnsMERoX-mHAi-4" target="PViRO45lnsMERoX-mHAi-7" edge="1"><mxGeometry relative="1" as="geometry"><mxPoint x="-40" y="70" as="targetPoint"/></mxGeometry></mxCell><mxCell id="PViRO45lnsMERoX-mHAi-11" style="edgeStyle=none;shape=connector;rounded=0;orthogonalLoop=1;jettySize=auto;html=1;labelBackgroundColor=default;fontFamily=Helvetica;fontSize=11;fontColor=default;endArrow=openThin;endFill=0;startSize=12;endSize=12;strokeColor=default;" parent="1" source="PViRO45lnsMERoX-mHAi-7" target="PViRO45lnsMERoX-mHAi-1" edge="1"><mxGeometry relative="1" as="geometry"/></mxCell><mxCell id="PViRO45lnsMERoX-mHAi-12" style="edgeStyle=none;shape=connector;rounded=0;orthogonalLoop=1;jettySize=auto;html=1;labelBackgroundColor=default;fontFamily=Helvetica;fontSize=11;fontColor=default;endArrow=openThin;endFill=0;startSize=12;endSize=12;strokeColor=default;" parent="1" source="PViRO45lnsMERoX-mHAi-8" target="PViRO45lnsMERoX-mHAi-1" edge="1"><mxGeometry relative="1" as="geometry"/></mxCell><mxCell id="PViRO45lnsMERoX-mHAi-13" style="edgeStyle=none;shape=connector;rounded=0;orthogonalLoop=1;jettySize=auto;html=1;labelBackgroundColor=default;fontFamily=Helvetica;fontSize=11;fontColor=default;endArrow=openThin;endFill=0;startSize=12;endSize=12;strokeColor=default;" parent="1" source="PViRO45lnsMERoX-mHAi-9" target="PViRO45lnsMERoX-mHAi-1" edge="1"><mxGeometry relative="1" as="geometry"/></mxCell><mxCell id="PViRO45lnsMERoX-mHAi-17" style="edgeStyle=none;shape=connector;rounded=0;orthogonalLoop=1;jettySize=auto;html=1;labelBackgroundColor=default;fontFamily=Helvetica;fontSize=11;fontColor=default;endArrow=openThin;endFill=0;startSize=12;endSize=12;strokeColor=#006EAF;fillColor=#1ba1e2;" parent="1" source="PViRO45lnsMERoX-mHAi-14" target="PViRO45lnsMERoX-mHAi-7" edge="1"><mxGeometry relative="1" as="geometry"/></mxCell><mxCell id="PViRO45lnsMERoX-mHAi-18" style="edgeStyle=none;shape=connector;rounded=0;orthogonalLoop=1;jettySize=auto;html=1;labelBackgroundColor=default;fontFamily=Helvetica;fontSize=11;fontColor=default;endArrow=openThin;endFill=0;startSize=12;endSize=12;strokeColor=#006EAF;fillColor=#1ba1e2;" parent="1" source="PViRO45lnsMERoX-mHAi-14" target="PViRO45lnsMERoX-mHAi-9" edge="1"><mxGeometry relative="1" as="geometry"/></mxCell><mxCell id="PViRO45lnsMERoX-mHAi-19" style="edgeStyle=none;shape=connector;rounded=0;orthogonalLoop=1;jettySize=auto;html=1;labelBackgroundColor=default;fontFamily=Helvetica;fontSize=11;fontColor=default;endArrow=openThin;endFill=0;startSize=12;endSize=12;strokeColor=#B09500;fillColor=#e3c800;" parent="1" source="PViRO45lnsMERoX-mHAi-15" target="PViRO45lnsMERoX-mHAi-8" edge="1"><mxGeometry relative="1" as="geometry"/></mxCell><mxCell id="PViRO45lnsMERoX-mHAi-30" style="edgeStyle=none;shape=connector;rounded=0;orthogonalLoop=1;jettySize=auto;html=1;labelBackgroundColor=default;fontFamily=Helvetica;fontSize=11;fontColor=default;endArrow=openThin;endFill=0;startSize=12;endSize=12;strokeColor=#B09500;fillColor=#e3c800;" parent="1" source="PViRO45lnsMERoX-mHAi-15" target="PViRO45lnsMERoX-mHAi-21" edge="1"><mxGeometry relative="1" as="geometry"/></mxCell><mxCell id="PViRO45lnsMERoX-mHAi-31" style="edgeStyle=none;shape=connector;rounded=0;orthogonalLoop=1;jettySize=auto;html=1;labelBackgroundColor=default;fontFamily=Helvetica;fontSize=11;fontColor=default;endArrow=openThin;endFill=0;startSize=12;endSize=12;strokeColor=#B09500;fillColor=#e3c800;" parent="1" source="PViRO45lnsMERoX-mHAi-15" target="PViRO45lnsMERoX-mHAi-9" edge="1"><mxGeometry relative="1" as="geometry"/></mxCell><mxCell id="243bSo4BZL4MdntdNz_G-4" style="edgeStyle=none;shape=connector;rounded=0;orthogonalLoop=1;jettySize=auto;html=1;labelBackgroundColor=default;fontFamily=Helvetica;fontSize=11;fontColor=default;endArrow=openThin;endFill=0;startSize=12;endSize=12;strokeColor=#B09500;fillColor=#e3c800;" parent="1" source="PViRO45lnsMERoX-mHAi-15" target="PViRO45lnsMERoX-mHAi-7" edge="1"><mxGeometry relative="1" as="geometry"><mxPoint x="153.33333333333348" y="210" as="targetPoint"/></mxGeometry></mxCell><mxCell id="PViRO45lnsMERoX-mHAi-22" style="edgeStyle=none;shape=connector;rounded=0;orthogonalLoop=1;jettySize=auto;html=1;labelBackgroundColor=default;fontFamily=Helvetica;fontSize=11;fontColor=default;endArrow=openThin;endFill=0;startSize=12;endSize=12;strokeColor=default;" parent="1" source="PViRO45lnsMERoX-mHAi-21" target="PViRO45lnsMERoX-mHAi-1" edge="1"><mxGeometry relative="1" as="geometry"/></mxCell><mxCell id="PViRO45lnsMERoX-mHAi-1" value="Entities" style="shape=module;align=center;spacingLeft=20;align=center;verticalAlign=middle;whiteSpace=wrap;" parent="1" vertex="1"><mxGeometry x="390" y="40" width="100" height="50" as="geometry"/></mxCell><mxCell id="MaJ_2Zy2BLXAup5J29dx-12" style="edgeStyle=none;shape=connector;rounded=0;orthogonalLoop=1;jettySize=auto;html=1;labelBackgroundColor=default;fontFamily=Helvetica;fontSize=11;fontColor=default;endArrow=openThin;endFill=0;startSize=12;endSize=12;strokeColor=#BD7000;fillColor=#f0a30a;" parent="1" source="PViRO45lnsMERoX-mHAi-4" target="MaJ_2Zy2BLXAup5J29dx-1" edge="1"><mxGeometry relative="1" as="geometry"/></mxCell><mxCell id="PViRO45lnsMERoX-mHAi-4" value="UI" style="shape=module;align=center;spacingLeft=20;align=center;verticalAlign=middle;whiteSpace=wrap;" parent="1" vertex="1"><mxGeometry x="550" y="280" width="100" height="50" as="geometry"/></mxCell><mxCell id="PViRO45lnsMERoX-mHAi-7" value="Media Addition / Removal" style="shape=module;align=center;spacingLeft=20;align=center;verticalAlign=middle;whiteSpace=wrap;" parent="1" vertex="1"><mxGeometry x="70" y="160" width="100" height="50" as="geometry"/></mxCell><mxCell id="PViRO45lnsMERoX-mHAi-8" value="Media Checkin / Checkout" style="shape=module;align=center;spacingLeft=20;align=center;verticalAlign=middle;whiteSpace=wrap;" parent="1" vertex="1"><mxGeometry x="390" y="160" width="100" height="50" as="geometry"/></mxCell><mxCell id="PViRO45lnsMERoX-mHAi-9" value="Media Querying / Browsing" style="shape=module;align=center;spacingLeft=20;align=center;verticalAlign=middle;whiteSpace=wrap;" parent="1" vertex="1"><mxGeometry x="230" y="160" width="100" height="50" as="geometry"/></mxCell><mxCell id="PViRO45lnsMERoX-mHAi-14" value="Inventory Persistence" style="shape=module;align=center;spacingLeft=20;align=center;verticalAlign=middle;whiteSpace=wrap;" parent="1" vertex="1"><mxGeometry x="70" y="280" width="100" height="50" as="geometry"/></mxCell><mxCell id="PViRO45lnsMERoX-mHAi-15" value="Checkin / Checkout Persistence" style="shape=module;align=center;spacingLeft=20;align=center;verticalAlign=middle;whiteSpace=wrap;" parent="1" vertex="1"><mxGeometry x="230" y="280" width="100" height="50" as="geometry"/></mxCell><mxCell id="PViRO45lnsMERoX-mHAi-21" value="Checkout Listing" style="shape=module;align=center;spacingLeft=20;align=center;verticalAlign=middle;whiteSpace=wrap;" parent="1" vertex="1"><mxGeometry x="550" y="160" width="100" height="50" as="geometry"/></mxCell><mxCell id="7hFrIZVfRNf05mKEVoW2-7" style="edgeStyle=none;shape=connector;rounded=0;orthogonalLoop=1;jettySize=auto;html=1;labelBackgroundColor=default;fontFamily=Helvetica;fontSize=11;fontColor=default;endArrow=openThin;endFill=0;startSize=12;endSize=12;strokeColor=#BD7000;fillColor=#f0a30a;" parent="1" source="PViRO45lnsMERoX-mHAi-4" target="PViRO45lnsMERoX-mHAi-21" edge="1"><mxGeometry relative="1" as="geometry"><mxPoint x="600" y="280" as="sourcePoint"/><mxPoint x="650" y="100" as="targetPoint"/></mxGeometry></mxCell><mxCell id="7hFrIZVfRNf05mKEVoW2-8" style="edgeStyle=none;shape=connector;rounded=0;orthogonalLoop=1;jettySize=auto;html=1;labelBackgroundColor=default;fontFamily=Helvetica;fontSize=11;fontColor=default;endArrow=openThin;endFill=0;startSize=12;endSize=12;strokeColor=#BD7000;fillColor=#f0a30a;" parent="1" source="PViRO45lnsMERoX-mHAi-4" target="PViRO45lnsMERoX-mHAi-8" edge="1"><mxGeometry relative="1" as="geometry"><mxPoint x="583.3333333333335" y="280" as="sourcePoint"/><mxPoint x="500" y="100" as="targetPoint"/></mxGeometry></mxCell><mxCell id="7hFrIZVfRNf05mKEVoW2-9" style="edgeStyle=none;shape=connector;rounded=0;orthogonalLoop=1;jettySize=auto;html=1;labelBackgroundColor=default;fontFamily=Helvetica;fontSize=11;fontColor=default;endArrow=openThin;endFill=0;startSize=12;endSize=12;strokeColor=#BD7000;fillColor=#f0a30a;" parent="1" source="PViRO45lnsMERoX-mHAi-4" target="PViRO45lnsMERoX-mHAi-9" edge="1"><mxGeometry relative="1" as="geometry"><mxPoint x="566.666666666667" y="280" as="sourcePoint"/><mxPoint x="380" y="110" as="targetPoint"/></mxGeometry></mxCell><mxCell id="7hFrIZVfRNf05mKEVoW2-10" style="edgeStyle=none;shape=connector;rounded=0;orthogonalLoop=1;jettySize=auto;html=1;labelBackgroundColor=default;fontFamily=Helvetica;fontSize=11;fontColor=default;endArrow=openThin;endFill=0;startSize=12;endSize=12;strokeColor=#BD7000;fillColor=#f0a30a;" parent="1" source="PViRO45lnsMERoX-mHAi-4" target="PViRO45lnsMERoX-mHAi-7" edge="1"><mxGeometry relative="1" as="geometry"><mxPoint x="550" y="280" as="sourcePoint"/><mxPoint x="170" y="203.18181818181813" as="targetPoint"/></mxGeometry></mxCell><mxCell id="MaJ_2Zy2BLXAup5J29dx-4" style="edgeStyle=none;shape=connector;rounded=0;orthogonalLoop=1;jettySize=auto;html=1;labelBackgroundColor=default;fontFamily=Helvetica;fontSize=11;fontColor=default;startArrow=none;startFill=0;endArrow=none;endFill=0;startSize=12;endSize=12;strokeColor=default;" parent="1" source="MaJ_2Zy2BLXAup5J29dx-1" target="PViRO45lnsMERoX-mHAi-1" edge="1"><mxGeometry relative="1" as="geometry"/></mxCell><mxCell id="MaJ_2Zy2BLXAup5J29dx-1" value="Account Addition / Removal" style="shape=module;align=center;spacingLeft=20;align=center;verticalAlign=middle;whiteSpace=wrap;" parent="1" vertex="1"><mxGeometry x="710" y="160" width="100" height="50" as="geometry"/></mxCell><mxCell id="MaJ_2Zy2BLXAup5J29dx-6" style="edgeStyle=none;shape=connector;rounded=0;orthogonalLoop=1;jettySize=auto;html=1;labelBackgroundColor=default;fontFamily=Helvetica;fontSize=11;fontColor=default;endArrow=openThin;endFill=0;startSize=12;endSize=12;strokeColor=#B20000;fillColor=#e51400;" parent="1" source="MaJ_2Zy2BLXAup5J29dx-3" target="MaJ_2Zy2BLXAup5J29dx-1" edge="1"><mxGeometry relative="1" as="geometry"/></mxCell><mxCell id="MaJ_2Zy2BLXAup5J29dx-8" style="edgeStyle=none;shape=connector;rounded=0;orthogonalLoop=1;jettySize=auto;html=1;labelBackgroundColor=default;fontFamily=Helvetica;fontSize=11;fontColor=default;endArrow=openThin;endFill=0;startSize=12;endSize=12;strokeColor=#B20000;fillColor=#e51400;" parent="1" source="MaJ_2Zy2BLXAup5J29dx-3" target="PViRO45lnsMERoX-mHAi-8" edge="1"><mxGeometry relative="1" as="geometry"/></mxCell><mxCell id="MaJ_2Zy2BLXAup5J29dx-9" style="edgeStyle=none;shape=connector;rounded=0;orthogonalLoop=1;jettySize=auto;html=1;labelBackgroundColor=default;fontFamily=Helvetica;fontSize=11;fontColor=default;endArrow=openThin;endFill=0;startSize=12;endSize=12;strokeColor=#B20000;fillColor=#e51400;" parent="1" source="MaJ_2Zy2BLXAup5J29dx-3" target="PViRO45lnsMERoX-mHAi-21" edge="1"><mxGeometry relative="1" as="geometry"/></mxCell><mxCell id="MaJ_2Zy2BLXAup5J29dx-3" value="Account Persistence" style="shape=module;align=center;spacingLeft=20;align=center;verticalAlign=middle;whiteSpace=wrap;" parent="1" vertex="1"><mxGeometry x="390" y="280" width="100" height="50" as="geometry"/></mxCell></root></mxGraphModel></diagram><diagram id="pPQjHrMoLcyB0sqf3h_W" name="Component Classes"><mxGraphModel dx="898" dy="728" grid="1" gridSize="10" guides="1" tooltips="1" connect="1" arrows="1" fold="1" page="1" pageScale="1" pageWidth="1600" pageHeight="1200" math="0" shadow="0"><root><mxCell id="0"/><mxCell id="1" parent="0"/><mxCell id="0zp0i9OfT9O5fiTyB-d3-11" style="edgeStyle=none;shape=connector;rounded=0;orthogonalLoop=1;jettySize=auto;html=1;labelBackgroundColor=default;fontFamily=Helvetica;fontSize=11;fontColor=default;endArrow=none;endFill=0;startSize=12;endSize=12;strokeColor=default;startArrow=diamondThin;startFill=1;" parent="1" source="0zp0i9OfT9O5fiTyB-d3-9" target="0zp0i9OfT9O5fiTyB-d3-10" edge="1"><mxGeometry relative="1" as="geometry"/></mxCell><mxCell id="0zp0i9OfT9O5fiTyB-d3-9" value="&lt;p style=&quot;margin:0px;margin-top:4px;text-align:center;&quot;&gt;&lt;i&gt;&amp;lt;&amp;lt;abstract&amp;gt;&amp;gt;&lt;/i&gt;&lt;/p&gt;&lt;p style=&quot;margin:0px;margin-top:4px;text-align:center;&quot;&gt;&lt;b&gt;&lt;i&gt;Media&lt;/i&gt;&lt;/b&gt;&lt;/p&gt;&lt;hr size=&quot;1&quot;&gt;&lt;p style=&quot;margin:0px;margin-left:4px;&quot;&gt;+ uid: Integer&lt;/p&gt;&lt;p style=&quot;margin:0px;margin-left:4px;&quot;&gt;+ title: String&lt;/p&gt;&lt;p style=&quot;margin:0px;margin-left:4px;&quot;&gt;+ authors: [Author]&lt;/p&gt;&lt;p style=&quot;margin:0px;margin-left:4px;&quot;&gt;+ released: Date&lt;/p&gt;&lt;p style=&quot;margin:0px;margin-left:4px;&quot;&gt;(+ thumbnail: Image)&lt;/p&gt;&lt;hr size=&quot;1&quot;&gt;&lt;p style=&quot;margin:0px;margin-left:4px;&quot;&gt;&lt;br&gt;&lt;/p&gt;" style="verticalAlign=top;align=left;overflow=fill;fontSize=12;fontFamily=Helvetica;html=1;fontColor=default;" parent="1" vertex="1"><mxGeometry x="320" y="80" width="160" height="140" as="geometry"/></mxCell><mxCell id="0zp0i9OfT9O5fiTyB-d3-10" value="&lt;p style=&quot;margin:0px;margin-top:4px;text-align:center;&quot;&gt;&lt;b&gt;Author&lt;/b&gt;&lt;/p&gt;&lt;hr size=&quot;1&quot;&gt;&lt;p style=&quot;margin:0px;margin-left:4px;&quot;&gt;+ uid: Integer&lt;/p&gt;&lt;p style=&quot;margin:0px;margin-left:4px;&quot;&gt;+ firstName: String&lt;/p&gt;&lt;p style=&quot;margin:0px;margin-left:4px;&quot;&gt;+ lastName: String&lt;/p&gt;&lt;hr size=&quot;1&quot;&gt;&lt;p style=&quot;margin:0px;margin-left:4px;&quot;&gt;&lt;br&gt;&lt;/p&gt;" style="verticalAlign=top;align=left;overflow=fill;fontSize=12;fontFamily=Helvetica;html=1;fontColor=default;" parent="1" vertex="1"><mxGeometry x="80" y="80" width="160" height="90" as="geometry"/></mxCell><mxCell id="0zp0i9OfT9O5fiTyB-d3-15" style="edgeStyle=none;shape=connector;rounded=0;orthogonalLoop=1;jettySize=auto;html=1;labelBackgroundColor=default;fontFamily=Helvetica;fontSize=11;fontColor=default;startArrow=diamondThin;startFill=1;endArrow=none;endFill=0;startSize=12;endSize=12;strokeColor=default;" parent="1" source="0zp0i9OfT9O5fiTyB-d3-13" target="0zp0i9OfT9O5fiTyB-d3-14" edge="1"><mxGeometry relative="1" as="geometry"/></mxCell><mxCell id="0zp0i9OfT9O5fiTyB-d3-20" style="edgeStyle=none;shape=connector;rounded=0;orthogonalLoop=1;jettySize=auto;html=1;labelBackgroundColor=default;fontFamily=Helvetica;fontSize=11;fontColor=default;startArrow=none;startFill=0;endArrow=block;endFill=0;startSize=12;endSize=12;strokeColor=default;" parent="1" source="0zp0i9OfT9O5fiTyB-d3-13" target="0zp0i9OfT9O5fiTyB-d3-9" edge="1"><mxGeometry relative="1" as="geometry"/></mxCell><mxCell id="0zp0i9OfT9O5fiTyB-d3-13" value="&lt;p style=&quot;margin:0px;margin-top:4px;text-align:center;&quot;&gt;&lt;b style=&quot;background-color: initial;&quot;&gt;Book&lt;/b&gt;&lt;br&gt;&lt;/p&gt;&lt;hr size=&quot;1&quot;&gt;&lt;p style=&quot;margin:0px;margin-left:4px;&quot;&gt;+ isbn: ISBN&lt;/p&gt;&lt;p style=&quot;margin:0px;margin-left:4px;&quot;&gt;+ edition: Integer&lt;/p&gt;&lt;hr size=&quot;1&quot;&gt;&lt;p style=&quot;margin:0px;margin-left:4px;&quot;&gt;&lt;br&gt;&lt;/p&gt;" style="verticalAlign=top;align=left;overflow=fill;fontSize=12;fontFamily=Helvetica;html=1;fontColor=default;" parent="1" vertex="1"><mxGeometry x="560" y="280" width="160" height="80" as="geometry"/></mxCell><mxCell id="0zp0i9OfT9O5fiTyB-d3-14" value="&lt;p style=&quot;margin:0px;margin-top:4px;text-align:center;&quot;&gt;&lt;b style=&quot;background-color: initial;&quot;&gt;ISBN&lt;/b&gt;&lt;br&gt;&lt;/p&gt;&lt;hr size=&quot;1&quot;&gt;&lt;p style=&quot;margin:0px;margin-left:4px;&quot;&gt;...&lt;/p&gt;&lt;hr size=&quot;1&quot;&gt;&lt;p style=&quot;margin:0px;margin-left:4px;&quot;&gt;&lt;br&gt;&lt;/p&gt;" style="verticalAlign=top;align=left;overflow=fill;fontSize=12;fontFamily=Helvetica;html=1;fontColor=default;" parent="1" vertex="1"><mxGeometry x="560" y="400" width="160" height="70" as="geometry"/></mxCell><mxCell id="0zp0i9OfT9O5fiTyB-d3-18" style="edgeStyle=none;shape=connector;rounded=0;orthogonalLoop=1;jettySize=auto;html=1;labelBackgroundColor=default;fontFamily=Helvetica;fontSize=11;fontColor=default;startArrow=diamondThin;startFill=1;endArrow=none;endFill=0;startSize=12;endSize=12;strokeColor=default;" parent="1" source="0zp0i9OfT9O5fiTyB-d3-16" target="0zp0i9OfT9O5fiTyB-d3-17" edge="1"><mxGeometry relative="1" as="geometry"/></mxCell><mxCell id="0zp0i9OfT9O5fiTyB-d3-21" style="edgeStyle=none;shape=connector;rounded=0;orthogonalLoop=1;jettySize=auto;html=1;labelBackgroundColor=default;fontFamily=Helvetica;fontSize=11;fontColor=default;startArrow=none;startFill=0;endArrow=block;endFill=0;startSize=12;endSize=12;strokeColor=default;" parent="1" source="0zp0i9OfT9O5fiTyB-d3-16" target="0zp0i9OfT9O5fiTyB-d3-9" edge="1"><mxGeometry relative="1" as="geometry"/></mxCell><mxCell id="0zp0i9OfT9O5fiTyB-d3-16" value="&lt;p style=&quot;margin:0px;margin-top:4px;text-align:center;&quot;&gt;&lt;b style=&quot;background-color: initial;&quot;&gt;Article&lt;/b&gt;&lt;br&gt;&lt;/p&gt;&lt;hr size=&quot;1&quot;&gt;&lt;p style=&quot;margin:0px;margin-left:4px;&quot;&gt;+ doi: DOI&lt;/p&gt;&lt;hr size=&quot;1&quot;&gt;&lt;p style=&quot;margin:0px;margin-left:4px;&quot;&gt;&lt;br&gt;&lt;/p&gt;" style="verticalAlign=top;align=left;overflow=fill;fontSize=12;fontFamily=Helvetica;html=1;fontColor=default;" parent="1" vertex="1"><mxGeometry x="320" y="280" width="160" height="70" as="geometry"/></mxCell><mxCell id="0zp0i9OfT9O5fiTyB-d3-17" value="&lt;p style=&quot;margin:0px;margin-top:4px;text-align:center;&quot;&gt;&lt;b style=&quot;background-color: initial;&quot;&gt;DOI&lt;/b&gt;&lt;br&gt;&lt;/p&gt;&lt;hr size=&quot;1&quot;&gt;&lt;p style=&quot;margin:0px;margin-left:4px;&quot;&gt;...&lt;/p&gt;&lt;hr size=&quot;1&quot;&gt;&lt;p style=&quot;margin:0px;margin-left:4px;&quot;&gt;&lt;br&gt;&lt;/p&gt;" style="verticalAlign=top;align=left;overflow=fill;fontSize=12;fontFamily=Helvetica;html=1;fontColor=default;" parent="1" vertex="1"><mxGeometry x="320" y="400" width="160" height="70" as="geometry"/></mxCell><mxCell id="0zp0i9OfT9O5fiTyB-d3-23" style="edgeStyle=none;shape=connector;rounded=0;orthogonalLoop=1;jettySize=auto;html=1;labelBackgroundColor=default;fontFamily=Helvetica;fontSize=11;fontColor=default;startArrow=none;startFill=0;endArrow=block;endFill=0;startSize=12;endSize=12;strokeColor=default;" parent="1" source="0zp0i9OfT9O5fiTyB-d3-22" target="0zp0i9OfT9O5fiTyB-d3-9" edge="1"><mxGeometry relative="1" as="geometry"/></mxCell><mxCell id="0zp0i9OfT9O5fiTyB-d3-22" value="&lt;p style=&quot;margin:0px;margin-top:4px;text-align:center;&quot;&gt;&lt;b style=&quot;background-color: initial;&quot;&gt;Video&lt;/b&gt;&lt;br&gt;&lt;/p&gt;&lt;hr size=&quot;1&quot;&gt;&lt;p style=&quot;margin:0px;margin-left:4px;&quot;&gt;+ length: Duration&lt;/p&gt;&lt;hr size=&quot;1&quot;&gt;&lt;p style=&quot;margin:0px;margin-left:4px;&quot;&gt;&lt;br&gt;&lt;/p&gt;" style="verticalAlign=top;align=left;overflow=fill;fontSize=12;fontFamily=Helvetica;html=1;fontColor=default;" parent="1" vertex="1"><mxGeometry x="80" y="280" width="160" height="70" as="geometry"/></mxCell><mxCell id="0zp0i9OfT9O5fiTyB-d3-30" style="edgeStyle=none;shape=connector;rounded=0;orthogonalLoop=1;jettySize=auto;html=1;labelBackgroundColor=default;fontFamily=Helvetica;fontSize=11;fontColor=default;startArrow=diamondThin;startFill=1;endArrow=none;endFill=0;startSize=12;endSize=12;strokeColor=default;" parent="1" source="0zp0i9OfT9O5fiTyB-d3-25" target="0zp0i9OfT9O5fiTyB-d3-9" edge="1"><mxGeometry relative="1" as="geometry"/></mxCell><mxCell id="0zp0i9OfT9O5fiTyB-d3-25" value="&lt;p style=&quot;margin:0px;margin-top:4px;text-align:center;&quot;&gt;&lt;i&gt;&amp;lt;&amp;lt;abstract&amp;gt;&amp;gt;&lt;/i&gt;&lt;/p&gt;&lt;p style=&quot;margin:0px;margin-top:4px;text-align:center;&quot;&gt;&lt;b&gt;&lt;i&gt;MediaInstance&lt;/i&gt;&lt;/b&gt;&lt;/p&gt;&lt;hr size=&quot;1&quot;&gt;&lt;p style=&quot;margin:0px;margin-left:4px;&quot;&gt;+ uid: Integer&lt;/p&gt;&lt;p style=&quot;margin:0px;margin-left:4px;&quot;&gt;+ media: Media&lt;br&gt;&lt;/p&gt;&lt;hr size=&quot;1&quot;&gt;&lt;p style=&quot;margin:0px;margin-left:4px;&quot;&gt;&lt;br&gt;&lt;/p&gt;" style="verticalAlign=top;align=left;overflow=fill;fontSize=12;fontFamily=Helvetica;html=1;fontColor=default;" parent="1" vertex="1"><mxGeometry x="920" y="80" width="160" height="100" as="geometry"/></mxCell><mxCell id="0zp0i9OfT9O5fiTyB-d3-28" style="edgeStyle=none;shape=connector;rounded=0;orthogonalLoop=1;jettySize=auto;html=1;labelBackgroundColor=default;fontFamily=Helvetica;fontSize=11;fontColor=default;startArrow=none;startFill=0;endArrow=block;endFill=0;startSize=12;endSize=12;strokeColor=default;" parent="1" source="0zp0i9OfT9O5fiTyB-d3-26" target="0zp0i9OfT9O5fiTyB-d3-25" edge="1"><mxGeometry relative="1" as="geometry"/></mxCell><mxCell id="0zp0i9OfT9O5fiTyB-d3-26" value="&lt;p style=&quot;margin:0px;margin-top:4px;text-align:center;&quot;&gt;&lt;b style=&quot;background-color: initial;&quot;&gt;PhysicalMediaInstance&lt;/b&gt;&lt;br&gt;&lt;/p&gt;&lt;hr size=&quot;1&quot;&gt;&lt;p style=&quot;margin:0px;margin-left:4px;&quot;&gt;+ location: Location&lt;br&gt;&lt;/p&gt;&lt;hr size=&quot;1&quot;&gt;&lt;p style=&quot;margin:0px;margin-left:4px;&quot;&gt;&lt;br&gt;&lt;/p&gt;" style="verticalAlign=top;align=left;overflow=fill;fontSize=12;fontFamily=Helvetica;html=1;fontColor=default;" parent="1" vertex="1"><mxGeometry x="800" y="240" width="160" height="70" as="geometry"/></mxCell><mxCell id="0zp0i9OfT9O5fiTyB-d3-29" style="edgeStyle=none;shape=connector;rounded=0;orthogonalLoop=1;jettySize=auto;html=1;labelBackgroundColor=default;fontFamily=Helvetica;fontSize=11;fontColor=default;startArrow=none;startFill=0;endArrow=block;endFill=0;startSize=12;endSize=12;strokeColor=default;" parent="1" source="0zp0i9OfT9O5fiTyB-d3-27" target="0zp0i9OfT9O5fiTyB-d3-25" edge="1"><mxGeometry relative="1" as="geometry"/></mxCell><mxCell id="0zp0i9OfT9O5fiTyB-d3-27" value="&lt;p style=&quot;margin:0px;margin-top:4px;text-align:center;&quot;&gt;&lt;b style=&quot;background-color: initial;&quot;&gt;DigitalMediaInstance&lt;/b&gt;&lt;br&gt;&lt;/p&gt;&lt;hr size=&quot;1&quot;&gt;&lt;p style=&quot;margin:0px;margin-left:4px;&quot;&gt;+ host: URL&lt;br&gt;&lt;/p&gt;&lt;hr size=&quot;1&quot;&gt;&lt;p style=&quot;margin:0px;margin-left:4px;&quot;&gt;&lt;br&gt;&lt;/p&gt;" style="verticalAlign=top;align=left;overflow=fill;fontSize=12;fontFamily=Helvetica;html=1;fontColor=default;" parent="1" vertex="1"><mxGeometry x="1040" y="240" width="160" height="70" as="geometry"/></mxCell><mxCell id="kS34iuWyc61IkwslK3yn-1" value="" style="shape=link;html=1;rounded=0;labelBackgroundColor=default;fontFamily=Helvetica;fontSize=11;fontColor=default;startArrow=diamondThin;startFill=1;endArrow=none;endFill=0;startSize=12;endSize=12;strokeColor=default;" parent="1" edge="1"><mxGeometry width="100" relative="1" as="geometry"><mxPoint x="30" y="560" as="sourcePoint"/><mxPoint x="1250" y="560" as="targetPoint"/></mxGeometry></mxCell><mxCell id="kS34iuWyc61IkwslK3yn-2" value="" style="shape=link;html=1;rounded=0;labelBackgroundColor=default;fontFamily=Helvetica;fontSize=11;fontColor=default;startArrow=diamondThin;startFill=1;endArrow=none;endFill=0;startSize=12;endSize=12;strokeColor=default;" parent="1" edge="1"><mxGeometry width="100" relative="1" as="geometry"><mxPoint x="1240" y="570" as="sourcePoint"/><mxPoint x="1240" y="30" as="targetPoint"/></mxGeometry></mxCell><mxCell id="kS34iuWyc61IkwslK3yn-3" value="" style="shape=link;html=1;rounded=0;labelBackgroundColor=default;fontFamily=Helvetica;fontSize=11;fontColor=default;startArrow=diamondThin;startFill=1;endArrow=none;endFill=0;startSize=12;endSize=12;strokeColor=default;" parent="1" edge="1"><mxGeometry width="100" relative="1" as="geometry"><mxPoint x="30" y="40" as="sourcePoint"/><mxPoint x="1250" y="40" as="targetPoint"/></mxGeometry></mxCell><mxCell id="kS34iuWyc61IkwslK3yn-4" value="" style="shape=link;html=1;rounded=0;labelBackgroundColor=default;fontFamily=Helvetica;fontSize=11;fontColor=default;startArrow=diamondThin;startFill=1;endArrow=none;endFill=0;startSize=12;endSize=12;strokeColor=default;" parent="1" edge="1"><mxGeometry width="100" relative="1" as="geometry"><mxPoint x="40" y="570" as="sourcePoint"/><mxPoint x="40" y="30" as="targetPoint"/></mxGeometry></mxCell><mxCell id="kS34iuWyc61IkwslK3yn-5" value="&lt;font style=&quot;font-size: 22px;&quot;&gt;Entities&lt;/font&gt;" style="text;html=1;strokeColor=none;fillColor=none;align=center;verticalAlign=middle;whiteSpace=wrap;rounded=0;fontFamily=Helvetica;fontSize=11;fontColor=default;" parent="1" vertex="1"><mxGeometry x="60" y="500" width="120" height="40" as="geometry"/></mxCell><mxCell id="ddKni3BF4L-k68HOPHSu-3" value="checked out by" style="edgeStyle=none;shape=connector;rounded=0;orthogonalLoop=1;jettySize=auto;html=1;labelBackgroundColor=default;fontFamily=Helvetica;fontSize=11;fontColor=default;startArrow=none;startFill=0;endArrow=none;endFill=0;startSize=12;endSize=12;strokeColor=default;" parent="1" source="ddKni3BF4L-k68HOPHSu-1" target="0zp0i9OfT9O5fiTyB-d3-26" edge="1"><mxGeometry relative="1" as="geometry"><mxPoint x="880" y="260" as="targetPoint"/></mxGeometry></mxCell><mxCell id="ddKni3BF4L-k68HOPHSu-1" value="&lt;p style=&quot;margin:0px;margin-top:4px;text-align:center;&quot;&gt;&lt;b style=&quot;background-color: initial;&quot;&gt;Customer&lt;/b&gt;&lt;br&gt;&lt;/p&gt;&lt;hr size=&quot;1&quot;&gt;&lt;p style=&quot;margin:0px;margin-left:4px;&quot;&gt;+ uid: Integer&lt;/p&gt;&lt;hr size=&quot;1&quot;&gt;&lt;p style=&quot;margin:0px;margin-left:4px;&quot;&gt;&lt;br&gt;&lt;/p&gt;" style="verticalAlign=top;align=left;overflow=fill;fontSize=12;fontFamily=Helvetica;html=1;fontColor=default;" parent="1" vertex="1"><mxGeometry x="800" y="400" width="160" height="80" as="geometry"/></mxCell><mxCell id="ddKni3BF4L-k68HOPHSu-4" value="*" style="text;html=1;strokeColor=none;fillColor=none;align=center;verticalAlign=middle;whiteSpace=wrap;rounded=0;fontFamily=Helvetica;fontSize=11;fontColor=default;" parent="1" vertex="1"><mxGeometry x="860" y="310" width="20" height="20" as="geometry"/></mxCell><mxCell id="ddKni3BF4L-k68HOPHSu-5" value="1" style="text;html=1;strokeColor=none;fillColor=none;align=center;verticalAlign=middle;whiteSpace=wrap;rounded=0;fontFamily=Helvetica;fontSize=11;fontColor=default;" parent="1" vertex="1"><mxGeometry x="860" y="380" width="20" height="20" as="geometry"/></mxCell><mxCell id="ddKni3BF4L-k68HOPHSu-7" value="1" style="text;html=1;strokeColor=none;fillColor=none;align=center;verticalAlign=middle;whiteSpace=wrap;rounded=0;fontFamily=Helvetica;fontSize=11;fontColor=default;" parent="1" vertex="1"><mxGeometry x="480" y="130" width="20" height="20" as="geometry"/></mxCell><mxCell id="ddKni3BF4L-k68HOPHSu-8" value="*" style="text;html=1;strokeColor=none;fillColor=none;align=center;verticalAlign=middle;whiteSpace=wrap;rounded=0;fontFamily=Helvetica;fontSize=11;fontColor=default;" parent="1" vertex="1"><mxGeometry x="900" y="110" width="20" height="20" as="geometry"/></mxCell><mxCell id="ddKni3BF4L-k68HOPHSu-9" value="*" style="text;html=1;strokeColor=none;fillColor=none;align=center;verticalAlign=middle;whiteSpace=wrap;rounded=0;fontFamily=Helvetica;fontSize=11;fontColor=default;" parent="1" vertex="1"><mxGeometry x="300" y="120" width="20" height="20" as="geometry"/></mxCell><mxCell id="ddKni3BF4L-k68HOPHSu-10" value="*" style="text;html=1;strokeColor=none;fillColor=none;align=center;verticalAlign=middle;whiteSpace=wrap;rounded=0;fontFamily=Helvetica;fontSize=11;fontColor=default;" parent="1" vertex="1"><mxGeometry x="240" y="110" width="20" height="20" as="geometry"/></mxCell><mxCell id="ddKni3BF4L-k68HOPHSu-11" value="1" style="text;html=1;strokeColor=none;fillColor=none;align=center;verticalAlign=middle;whiteSpace=wrap;rounded=0;fontFamily=Helvetica;fontSize=11;fontColor=default;" parent="1" vertex="1"><mxGeometry x="400" y="380" width="20" height="20" as="geometry"/></mxCell><mxCell id="ddKni3BF4L-k68HOPHSu-12" value="1" style="text;html=1;strokeColor=none;fillColor=none;align=center;verticalAlign=middle;whiteSpace=wrap;rounded=0;fontFamily=Helvetica;fontSize=11;fontColor=default;" parent="1" vertex="1"><mxGeometry x="400" y="350" width="20" height="20" as="geometry"/></mxCell><mxCell id="ddKni3BF4L-k68HOPHSu-13" value="1" style="text;html=1;strokeColor=none;fillColor=none;align=center;verticalAlign=middle;whiteSpace=wrap;rounded=0;fontFamily=Helvetica;fontSize=11;fontColor=default;" parent="1" vertex="1"><mxGeometry x="640" y="360" width="20" height="20" as="geometry"/></mxCell><mxCell id="ddKni3BF4L-k68HOPHSu-14" value="1" style="text;html=1;strokeColor=none;fillColor=none;align=center;verticalAlign=middle;whiteSpace=wrap;rounded=0;fontFamily=Helvetica;fontSize=11;fontColor=default;" parent="1" vertex="1"><mxGeometry x="640" y="380" width="20" height="20" as="geometry"/></mxCell></root></mxGraphModel></diagram></mxfile>